Coordinates
version=1
nRows=8
nColumns=63
inDegrees=yes

Units are S.I. units (second, meters, Newtons, ...)
If the header above contains a line with 'inDegrees', this indicates whether rotational values are in degrees (yes) or radians (no).

endheader
time	pelvis_tilt	pelvis_list	pelvis_rotation	pelvis_tx	pelvis_ty	pelvis_tz	hip_flexion_r	hip_adduction_r	hip_rotation_r	knee_angle_r	knee_angle_r_beta	ankle_angle_r	subtalar_angle_r	mtp_angle_r	hip_flexion_l	hip_adduction_l	hip_rotation_l	knee_angle_l	knee_angle_l_beta	ankle_angle_l	subtalar_angle_l	mtp_angle_l	L5_S1_Flex_Ext	L5_S1_Lat_Bending	L5_S1_axial_rotation	L4_L5_Flex_Ext	L4_L5_Lat_Bending	L4_L5_axial_rotation	L3_L4_Flex_Ext	L3_L4_Lat_Bending	L3_L4_axial_rotation	L2_L3_Flex_Ext	L2_L3_Lat_Bending	L2_L3_axial_rotation	L1_L2_Flex_Ext	L1_L2_Lat_Bending	L1_L2_axial_rotation	L1_T12_Flex_Ext	L1_T12_Lat_Bending	L1_T12_axial_rotation	Abs_r3	Abs_r2	Abs_r1	Abs_t1	Abs_t2	neck_flexion	neck_bending	neck_rotation	arm_flex_r	arm_add_r	arm_rot_r	elbow_flex_r	pro_sup_r	wrist_flex_r	wrist_dev_r	arm_flex_l	arm_add_l	arm_rot_l	elbow_flex_l	pro_sup_l	wrist_flex_l	wrist_dev_l
      2.08474576	      1.93200240	     -8.80394176	     92.93663613	     -0.00989030	      1.04201634	      0.44022631	     -0.49297929	      1.64827144	      6.20783504	      0.35448816	      0.00618699	     18.58932746	     -2.10642237	      0.00000000	      1.49719489	     -4.38845486	     13.84982375	      1.28757391	      0.02247240	     21.86703280	     -4.72485449	      0.00000000	      0.07878138	      0.32042992	      0.39016766	      0.14630490	      0.42617180	      0.41455314	      0.12942993	      0.77909332	      0.41455314	      0.09003924	      0.77909332	      0.34139670	      0.07315639	      0.65342070	      0.31701122	      0.04501568	      0.49634595	      0.29262574	      0.56272750	      3.62476739	      2.16999547	      0.00000000	      0.00000000	     24.86834225	      2.92786032	      1.26645168	     -0.46517687	     -8.46665198	     35.35635456	     55.90555790	      1.99823166	    -25.11825268	     27.68175543	     14.93896658	     -7.93815868	     63.20114018	     50.96113092	     63.17017498	     -1.45726637	      7.18251858
      2.10169492	      1.95474004	     -8.71732373	     92.97868682	     -0.00991670	      1.04219503	      0.44007684	     -0.59881885	      1.67969886	      5.89217511	      0.35042377	      0.00611605	     18.55944902	     -1.78584179	      0.00000000	      1.40785906	     -4.42841230	     13.12728357	      1.25434358	      0.02189243	     22.13087197	     -3.73347568	      0.00000000	      0.06578139	      0.32550666	      0.38012140	      0.12216261	      0.43292386	      0.40387899	      0.10807224	      0.79143690	      0.40387899	      0.07518155	      0.79143690	      0.33260623	      0.06108459	      0.66377319	      0.30884864	      0.03758748	      0.50420982	      0.28509105	      0.46986986	      3.68219647	      2.11412121	      0.00000000	      0.00000000	     24.94959677	      2.90947531	      1.40072855	     -0.80276059	     -8.15672420	     34.41752306	     55.91256613	      1.96550972	    -25.24019081	     27.76903088	     15.01792557	     -7.94537901	     63.41013130	     50.95312493	     62.78485881	     -1.54653997	      7.05481659
      2.11864407	      1.92277874	     -8.71807936	     92.87595390	     -0.00968058	      1.04224168	      0.43948006	     -0.64040972	      1.65367536	      6.14209089	      0.34652273	      0.00604796	     18.46710633	     -2.08358576	      0.00000000	      1.34288366	     -4.40835071	     13.23382767	      1.22348765	      0.02135389	     22.06451887	     -3.94047382	      0.00000000	      0.07849459	      0.32385640	      0.38288091	      0.14577231	      0.43072902	      0.40681096	      0.12895877	      0.78742446	      0.40681096	      0.08971147	      0.78742446	      0.33502079	      0.07289008	      0.66040798	      0.31109074	      0.04485181	      0.50165357	      0.28716068	      0.56067902	      3.66352840	      2.12946875	      0.00000000	      0.00000000	     24.73273504	      2.88869854	      1.55262410	     -1.34168656	     -7.61547930	     33.13366548	     55.88145952	      1.92070435	    -25.79179667	     27.47742185	     14.76026645	     -7.99157757	     63.08199904	     51.07950584	     62.74873873	     -1.55068638	      7.14656515
      2.13559322	      1.97369182	     -8.59021652	     92.89331654	     -0.00959353	      1.04247078	      0.43929250	     -0.78680926	      1.71145593	      5.83513876	      0.34523298	      0.00602545	     18.55278503	     -1.48406323	      0.00000000	      1.16711520	     -4.48402256	     12.71007145	      1.15433521	      0.02014695	     22.21121666	     -3.17336948	      0.00000000	      0.05836403	      0.32909398	      0.38853913	      0.10838784	      0.43769499	      0.41282283	      0.09588626	      0.80015910	      0.41282283	      0.06670425	      0.80015910	      0.33997174	      0.05419684	      0.67108844	      0.31568805	      0.03334921	      0.50976657	      0.29140435	      0.41688842	      3.72277691	      2.16093810	      0.00000000	      0.00000000	     24.84040665	      2.94172715	      1.54758125	     -1.52459222	     -7.55531506	     32.85185788	     56.00789695	      2.09126805	    -25.61230209	     26.92839981	     14.88263627	     -8.00914773	     63.29397893	     51.11540080	     62.47664391	     -1.52351577	      7.26487439
      2.15254237	      1.92002070	     -8.66189566	     92.74409041	     -0.00919676	      1.04257928	      0.43889532	     -0.61910177	      1.66767606	      5.65703471	      0.55366076	      0.00966320	     18.75579740	     -1.02113975	      0.00000000	      1.38205706	     -4.41356450	     11.78651202	      1.58739373	      0.02770525	     22.50848820	     -2.23314533	      0.00000000	      0.08536457	      0.32120498	      0.43133206	      0.15853053	      0.42720262	      0.45829031	      0.14024544	      0.78097778	      0.45829031	      0.09756316	      0.78097778	      0.37741555	      0.07926954	      0.65500119	      0.35045730	      0.04877731	      0.49754651	      0.32349905	      0.60975056	      3.63353495	      2.39893952	      0.00000000	      0.00000000	     24.27715013	      2.88527575	      1.48359635	     -1.97506600	     -7.18257865	     32.00133858	     56.01813735	      3.13338160	    -25.70718138	     26.28487346	     14.85438607	     -8.03128905	     63.45059089	     51.13347744	     62.17699072	     -1.53063020	      7.56089910
      2.16949153	      1.92403503	     -8.46475942	     92.61248088	     -0.00896861	      1.04289430	      0.43832534	     -0.92241950	      1.67407307	      6.20643051	      0.32898818	      0.00574193	     18.73215548	     -1.26037379	      0.00000000	      0.89830317	     -4.46527140	     12.02025821	      1.10469143	      0.01928050	     22.21172830	     -2.62143425	      0.00000000	      0.05595347	      0.32231306	      0.46282790	      0.10391118	      0.42867637	      0.49175464	      0.09192595	      0.78367197	      0.49175464	      0.06394922	      0.78367197	      0.40497441	      0.05195839	      0.65726079	      0.37604767	      0.03197181	      0.49926293	      0.34712092	      0.39967001	      3.64606976	      2.57410993	      0.00000000	      0.00000000	     24.58022100	      2.88012857	      1.42124311	     -2.01766072	     -7.06439699	     31.67657708	     55.91063283	      1.98644671	    -26.02641202	     26.42435128	     14.78878048	     -8.03095502	     63.28832229	     51.22939235	     62.29659856	     -1.49549583	      7.72858153
      2.18644068	      1.92799331	     -8.37053334	     92.48127380	     -0.00856879	      1.04316843	      0.43781534	     -1.00265186	      1.69182522	      6.22918845	      0.31694989	      0.00553182	     19.02718605	     -0.72986012	      0.00000000	      0.72337310	     -4.50605019	     11.69234208	      1.05591235	      0.01842915	     22.23808190	     -2.22753425	      0.00000000	      0.04873135	      0.32067512	      0.49170173	      0.09049899	      0.42649792	      0.52243309	      0.08006074	      0.77968950	      0.52243309	      0.05569506	      0.77968950	      0.43023902	      0.04525193	      0.65392071	      0.39950766	      0.02784509	      0.49672577	      0.36877630	      0.34808316	      3.62754115	      2.73469754	      0.00000000	      0.00000000	     24.53928221	      2.88923819	      1.33825762	     -2.08081769	     -7.06367102	     31.83189436	     55.89121826	      2.15323046	    -25.65240862	     25.91299757	     14.81945068	     -8.07451074	     63.49343381	     51.21489079	     61.99313636	     -1.50236437	      7.74914496
      2.20338983	      1.89470637	     -8.42657806	     92.17996899	     -0.00797267	      1.04323661	      0.43733444	     -0.90729467	      1.67027237	      7.40313240	      0.30691628	      0.00535670	     19.09707623	     -1.70519746	      0.00000000	      0.67561336	     -4.46710355	     12.65822724	      1.00319213	      0.01750901	     21.82587331	     -4.21249820	      0.00000000	      0.06322015	      0.31635059	      0.54211094	      0.11740614	      0.42074628	      0.57599288	      0.10386439	      0.76917482	      0.57599288	      0.07225431	      0.76917482	      0.47434708	      0.05870623	      0.64510212	      0.44046514	      0.03612399	      0.49002706	      0.40658321	      0.45157522	      3.57862110	      3.01505844	      0.00000000	      0.00000000	     24.39392099	      2.82041776	      1.38477811	     -2.30221615	     -6.81975411	     31.27742524	     55.87502337	      1.95390523	    -26.30434013	     26.20312910	     14.57621033	     -8.06959240	     63.03113406	     51.23411781	     62.84343074	     -1.34923800	      7.98214789
